<svg xmlns="http://www.w3.org/2000/svg" viewBox="0 0 64 64">
  <defs>
    <radialGradient id="bg" cx="50%" cy="50%" r="50%">
      <stop offset="0%" stop-color="#1a0a2e"/>
      <stop offset="100%" stop-color="#060310"/>
    </radialGradient>
    <radialGradient id="rim" cx="50%" cy="50%" r="50%">
      <stop offset="0%" stop-color="#f5c842"/>
      <stop offset="100%" stop-color="#8a5c00"/>
    </radialGradient>
  </defs>
  <!-- background circle -->
  <circle cx="32" cy="32" r="32" fill="url(#bg)"/>
  <!-- gold rim -->
  <circle cx="32" cy="32" r="28" fill="url(#rim)"/>
  <circle cx="32" cy="32" r="25" fill="#0a0318"/>
  <!-- wheel segments -->
  <path d="M32,32 L32,7 A25,25 0 0,1 36,7.2 Z" fill="#15803d"/>
  <path d="M32,32 L36,7.2 A25,25 0 0,1 44,10 Z" fill="#b91c1c"/>
  <path d="M32,32 L44,10 A25,25 0 0,1 50,16 Z" fill="#1c1c1c"/>
  <path d="M32,32 L50,16 A25,25 0 0,1 55,24 Z" fill="#b91c1c"/>
  <path d="M32,32 L55,24 A25,25 0 0,1 57,32 Z" fill="#1c1c1c"/>
  <path d="M32,32 L57,32 A25,25 0 0,1 55,40 Z" fill="#b91c1c"/>
  <path d="M32,32 L55,40 A25,25 0 0,1 50,48 Z" fill="#1c1c1c"/>
  <path d="M32,32 L50,48 A25,25 0 0,1 44,54 Z" fill="#b91c1c"/>
  <path d="M32,32 L44,54 A25,25 0 0,1 36,56.8 Z" fill="#1c1c1c"/>
  <path d="M32,32 L36,56.8 A25,25 0 0,1 28,56.8 Z" fill="#b91c1c"/>
  <path d="M32,32 L28,56.8 A25,25 0 0,1 20,54 Z" fill="#1c1c1c"/>
  <path d="M32,32 L20,54 A25,25 0 0,1 14,48 Z" fill="#b91c1c"/>
  <path d="M32,32 L14,48 A25,25 0 0,1 9,40 Z" fill="#1c1c1c"/>
  <path d="M32,32 L9,40 A25,25 0 0,1 7,32 Z" fill="#b91c1c"/>
  <path d="M32,32 L7,32 A25,25 0 0,1 9,24 Z" fill="#1c1c1c"/>
  <path d="M32,32 L9,24 A25,25 0 0,1 14,16 Z" fill="#b91c1c"/>
  <path d="M32,32 L14,16 A25,25 0 0,1 20,10 Z" fill="#1c1c1c"/>
  <path d="M32,32 L20,10 A25,25 0 0,1 28,7.2 Z" fill="#b91c1c"/>
  <path d="M32,32 L28,7.2 A25,25 0 0,1 32,7 Z" fill="#1c1c1c"/>
  <!-- inner hub -->
  <circle cx="32" cy="32" r="10" fill="#0f0520"/>
  <circle cx="32" cy="32" r="9" fill="none" stroke="#f5c842" stroke-width="1"/>
  <circle cx="32" cy="32" r="4" fill="#f5c842"/>
  <!-- GV text -->
  <text x="32" y="36" text-anchor="middle" font-family="Arial Black, sans-serif" font-size="5" font-weight="900" fill="#fff">GV</text>
</svg>