<svg width="100%" viewBox="0 0 680 420" role="img" xmlns="http://www.w3.org/2000/svg">
<defs>
  <radialGradient id="cbg" cx="50%" cy="35%" r="70%"><stop offset="0%" stop-color="#071a0e"/><stop offset="100%" stop-color="#020806"/></radialGradient>
  <radialGradient id="cglow" cx="50%" cy="45%" r="55%"><stop offset="0%" stop-color="#16a34a" stop-opacity="0.4"/><stop offset="100%" stop-color="#16a34a" stop-opacity="0"/></radialGradient>
  <clipPath id="ccard"><rect width="680" height="420" rx="18"/></clipPath>
</defs>
<g clip-path="url(#ccard)">
<rect width="680" height="420" fill="url(#cbg)"/>
<ellipse cx="340" cy="175" rx="280" ry="200" fill="url(#cglow)"/>
<g opacity="0.1" stroke="#22c55e" stroke-width="0.5"><line x1="0" y1="350" x2="680" y2="350"/><line x1="0" y1="370" x2="680" y2="370"/><line x1="340" y1="260" x2="0" y2="420" /><line x1="340" y1="260" x2="170" y2="420"/><line x1="340" y1="260" x2="340" y2="420"/><line x1="340" y1="260" x2="510" y2="420"/><line x1="340" y1="260" x2="680" y2="420"/></g>
<rect x="70" y="35" width="4" height="4" fill="#22c55e" opacity="0.9"/><rect x="72" y="37" width="2" height="2" fill="#86efac" opacity="0.7"/><rect x="590" y="28" width="4" height="4" fill="#22c55e" opacity="0.8"/><rect x="160" y="55" width="2" height="2" fill="#f5c842" opacity="0.8"/><rect x="510" y="48" width="2" height="2" fill="#f5c842" opacity="0.7"/><rect x="40" y="160" width="3" height="3" fill="#22c55e" opacity="0.5"/><rect x="635" y="145" width="3" height="3" fill="#22c55e" opacity="0.5"/>
<circle cx="100" cy="170" r="26" fill="#0f2d14" stroke="#22c55e" stroke-width="2"/><circle cx="100" cy="170" r="20" fill="none" stroke="#22c55e" stroke-width="0.8" stroke-dasharray="4,3"/><circle cx="100" cy="170" r="10" fill="#22c55e"/><text x="100" y="176" text-anchor="middle" font-family="Arial Black, sans-serif" font-size="10" font-weight="900" fill="#fff">50</text><rect x="90" y="145" width="6" height="6" fill="#22c55e"/><rect x="104" y="145" width="6" height="6" fill="#22c55e"/><rect x="90" y="189" width="6" height="6" fill="#22c55e"/><rect x="104" y="189" width="6" height="6" fill="#22c55e"/>
<circle cx="580" cy="170" r="26" fill="#0f2d14" stroke="#22c55e" stroke-width="2"/><circle cx="580" cy="170" r="20" fill="none" stroke="#22c55e" stroke-width="0.8" stroke-dasharray="4,3"/><circle cx="580" cy="170" r="10" fill="#22c55e"/><text x="580" y="176" text-anchor="middle" font-family="Arial Black, sans-serif" font-size="10" font-weight="900" fill="#fff">50</text><rect x="570" y="145" width="6" height="6" fill="#22c55e"/><rect x="584" y="145" width="6" height="6" fill="#22c55e"/><rect x="570" y="189" width="6" height="6" fill="#22c55e"/><rect x="584" y="189" width="6" height="6" fill="#22c55e"/>
<g><rect x="0" y="210" width="28" height="28" fill="#0a2210" stroke="#166534" stroke-width="1"/><rect x="28" y="210" width="28" height="28" fill="#052b0e" stroke="#166534" stroke-width="1"/><rect x="0" y="238" width="28" height="28" fill="#052b0e" stroke="#166534" stroke-width="1"/><rect x="28" y="238" width="28" height="28" fill="#0a2210" stroke="#166534" stroke-width="1"/><rect x="0" y="266" width="28" height="28" fill="#0a2210" stroke="#166534" stroke-width="1"/><rect x="28" y="266" width="28" height="28" fill="#166534" stroke="#16a34a" stroke-width="1"/><rect x="0" y="294" width="28" height="28" fill="#052b0e" stroke="#166534" stroke-width="1"/><rect x="28" y="294" width="28" height="28" fill="#0a2210" stroke="#166534" stroke-width="1"/></g>
<g><rect x="624" y="210" width="28" height="28" fill="#0a2210" stroke="#166534" stroke-width="1"/><rect x="652" y="210" width="28" height="28" fill="#052b0e" stroke="#166534" stroke-width="1"/><rect x="624" y="238" width="28" height="28" fill="#052b0e" stroke="#166534" stroke-width="1"/><rect x="652" y="238" width="28" height="28" fill="#0a2210" stroke="#166534" stroke-width="1"/><rect x="624" y="266" width="28" height="28" fill="#166534" stroke="#16a34a" stroke-width="1"/><rect x="652" y="266" width="28" height="28" fill="#0a2210" stroke="#166534" stroke-width="1"/><rect x="624" y="294" width="28" height="28" fill="#0a2210" stroke="#166534" stroke-width="1"/><rect x="652" y="294" width="28" height="28" fill="#052b0e" stroke="#166534" stroke-width="1"/></g>
<rect x="150" y="45" width="380" height="270" rx="10" fill="#06180a" stroke="#22c55e" stroke-width="1.5"/>
<rect x="150" y="45" width="380" height="40" rx="10" fill="#16a34a" opacity="0.9"/>
<rect x="150" y="65" width="380" height="20" fill="#16a34a" opacity="0.9"/>
<text x="340" y="72" text-anchor="middle" font-family="Arial Black, sans-serif" font-size="14" font-weight="900" fill="#fff" letter-spacing="4">SCOREBOARD</text>
<text x="340" y="215" text-anchor="middle" font-family="Arial Black, Arial, sans-serif" font-size="118" font-weight="900" fill="#22c55e" opacity="0.12">36</text>
<text x="340" y="215" text-anchor="middle" font-family="Arial Black, Arial, sans-serif" font-size="118" font-weight="900" fill="#4ade80">36</text>
<g fill="#f5c842" opacity="0.9"><polygon points="220,105 213,130 222,128 216,155 230,128 220,130"/><polygon points="460,105 453,130 462,128 456,155 470,128 460,130"/></g>
<rect x="175" y="248" width="140" height="14" rx="3" fill="#0f2d14" stroke="#22c55e" stroke-width="0.8"/><rect x="175" y="248" width="126" height="14" rx="3" fill="#16a34a"/>
<text x="180" y="259" font-family="Arial, sans-serif" font-size="9" fill="#fff" letter-spacing="1">P1  ████████████</text>
<rect x="365" y="248" width="140" height="14" rx="3" fill="#0f2d14" stroke="#22c55e" stroke-width="0.8"/><rect x="365" y="248" width="98" height="14" rx="3" fill="#166534"/>
<text x="370" y="259" font-family="Arial, sans-serif" font-size="9" fill="#fff" letter-spacing="1">P2  █████████</text>
<rect x="288" y="115" width="4" height="4" fill="#86efac" opacity="0.6"/><rect x="296" y="108" width="3" height="3" fill="#86efac" opacity="0.4"/>
<rect x="0" y="330" width="680" height="90" fill="#020806" opacity="0.94"/>
<line x1="0" y1="330" x2="680" y2="330" stroke="#22c55e" stroke-width="1.2" opacity="0.5"/>
<polygon points="50,357 53,348 56,357 65,357 58,363 61,372 53,366 45,372 48,363 41,357" fill="#22c55e" opacity="0.85"/>
<polygon points="630,357 633,348 636,357 645,357 638,363 641,372 633,366 625,372 628,363 621,357" fill="#22c55e" opacity="0.85"/>
<text x="340" y="378" text-anchor="middle" font-family="Arial Black, Arial, sans-serif" font-size="48" font-weight="900" fill="#fff" letter-spacing="10">CSN</text>
<text x="340" y="408" text-anchor="middle" font-family="Arial, sans-serif" font-size="13" fill="#86efac" letter-spacing="3">GrowVegas</text>
</g>
</svg>
