<svg width="100%" viewBox="0 0 680 420" role="img" xmlns="http://www.w3.org/2000/svg">
<defs>
  <radialGradient id="vbg" cx="50%" cy="45%" r="65%"><stop offset="0%" stop-color="#1a0a2e"/><stop offset="100%" stop-color="#060310"/></radialGradient>
  <radialGradient id="vglow" cx="50%" cy="50%" r="50%"><stop offset="0%" stop-color="#7c3aed" stop-opacity="0.5"/><stop offset="100%" stop-color="#7c3aed" stop-opacity="0"/></radialGradient>
  <radialGradient id="vrim" cx="50%" cy="50%" r="50%"><stop offset="0%" stop-color="#f5c842"/><stop offset="60%" stop-color="#e8a800"/><stop offset="100%" stop-color="#8a5c00"/></radialGradient>
  <radialGradient id="vhub" cx="50%" cy="50%" r="50%"><stop offset="0%" stop-color="#3b0f7c"/><stop offset="100%" stop-color="#1a0a2e"/></radialGradient>
  <clipPath id="vcard"><rect width="680" height="420" rx="18"/></clipPath>
</defs>
<g clip-path="url(#vcard)">
<rect width="680" height="420" fill="url(#vbg)"/>
<g opacity="0.18"><line x1="0" y1="340" x2="680" y2="340" stroke="#7c3aed" stroke-width="0.5"/><line x1="0" y1="360" x2="680" y2="360" stroke="#7c3aed" stroke-width="0.5"/><line x1="0" y1="380" x2="680" y2="380" stroke="#7c3aed" stroke-width="0.5"/><line x1="340" y1="300" x2="0" y2="420" stroke="#7c3aed" stroke-width="0.5"/><line x1="340" y1="300" x2="136" y2="420" stroke="#7c3aed" stroke-width="0.5"/><line x1="340" y1="300" x2="272" y2="420" stroke="#7c3aed" stroke-width="0.5"/><line x1="340" y1="300" x2="408" y2="420" stroke="#7c3aed" stroke-width="0.5"/><line x1="340" y1="300" x2="544" y2="420" stroke="#7c3aed" stroke-width="0.5"/><line x1="340" y1="300" x2="680" y2="420" stroke="#7c3aed" stroke-width="0.5"/></g>
<ellipse cx="340" cy="190" rx="200" ry="180" fill="url(#vglow)"/>
<rect x="80" y="40" width="4" height="4" fill="#f5c842" opacity="0.9"/><rect x="84" y="44" width="2" height="2" fill="#f5c842" opacity="0.5"/><rect x="600" y="60" width="4" height="4" fill="#f5c842" opacity="0.8"/><rect x="604" y="64" width="2" height="2" fill="#f5c842" opacity="0.4"/><rect x="150" y="80" width="2" height="2" fill="#a78bfa" opacity="0.9"/><rect x="520" y="35" width="2" height="2" fill="#a78bfa" opacity="0.7"/><rect x="60" y="160" width="3" height="3" fill="#e879f9" opacity="0.6"/><rect x="620" y="150" width="3" height="3" fill="#e879f9" opacity="0.5"/><rect x="40" y="260" width="2" height="2" fill="#f5c842" opacity="0.5"/><rect x="640" y="240" width="2" height="2" fill="#f5c842" opacity="0.5"/>
<rect x="30" y="280" width="20" height="20" fill="#2d1657" stroke="#4c1d95" stroke-width="1"/><rect x="50" y="280" width="20" height="20" fill="#3b0f7c" stroke="#4c1d95" stroke-width="1"/><rect x="30" y="300" width="20" height="20" fill="#1e0d4a" stroke="#4c1d95" stroke-width="1"/><rect x="50" y="300" width="20" height="20" fill="#2d1657" stroke="#4c1d95" stroke-width="1"/><rect x="10" y="300" width="20" height="20" fill="#3b0f7c" stroke="#4c1d95" stroke-width="1"/><rect x="30" y="260" width="20" height="20" fill="#4c1d95" stroke="#5b21b6" stroke-width="1"/>
<rect x="630" y="280" width="20" height="20" fill="#2d1657" stroke="#4c1d95" stroke-width="1"/><rect x="650" y="280" width="20" height="20" fill="#3b0f7c" stroke="#4c1d95" stroke-width="1"/><rect x="630" y="300" width="20" height="20" fill="#1e0d4a" stroke="#4c1d95" stroke-width="1"/><rect x="650" y="300" width="20" height="20" fill="#2d1657" stroke="#4c1d95" stroke-width="1"/><rect x="650" y="260" width="20" height="20" fill="#4c1d95" stroke="#5b21b6" stroke-width="1"/>
<circle cx="340" cy="185" r="148" fill="url(#vrim)"/>
<circle cx="340" cy="185" r="140" fill="#0a0318"/>
<g transform="translate(340,185)">
  <path d="M0,0 L0,-138 A138,138 0 0,1 23.4,-136.0 Z" fill="#15803d"/>
  <path d="M0,0 L23.4,-136.0 A138,138 0 0,1 46.3,-129.9 Z" fill="#b91c1c"/>
  <path d="M0,0 L46.3,-129.9 A138,138 0 0,1 68.0,-119.8 Z" fill="#1c1c1c"/>
  <path d="M0,0 L68.0,-119.8 A138,138 0 0,1 87.9,-106.2 Z" fill="#b91c1c"/>
  <path d="M0,0 L87.9,-106.2 A138,138 0 0,1 105.4,-89.3 Z" fill="#1c1c1c"/>
  <path d="M0,0 L105.4,-89.3 A138,138 0 0,1 119.8,-69.7 Z" fill="#b91c1c"/>
  <path d="M0,0 L119.8,-69.7 A138,138 0 0,1 130.6,-47.8 Z" fill="#1c1c1c"/>
  <path d="M0,0 L130.6,-47.8 A138,138 0 0,1 137.2,-24.3 Z" fill="#b91c1c"/>
  <path d="M0,0 L137.2,-24.3 A138,138 0 0,1 138.6,0 Z" fill="#1c1c1c"/>
  <path d="M0,0 L138.6,0 A138,138 0 0,1 136.3,24.7 Z" fill="#b91c1c"/>
  <path d="M0,0 L136.3,24.7 A138,138 0 0,1 130.0,48.5 Z" fill="#1c1c1c"/>
  <path d="M0,0 L130.0,48.5 A138,138 0 0,1 120.1,70.5 Z" fill="#b91c1c"/>
  <path d="M0,0 L120.1,70.5 A138,138 0 0,1 106.5,90.3 Z" fill="#1c1c1c"/>
  <path d="M0,0 L106.5,90.3 A138,138 0 0,1 89.4,107.5 Z" fill="#b91c1c"/>
  <path d="M0,0 L89.4,107.5 A138,138 0 0,1 69.4,120.9 Z" fill="#1c1c1c"/>
  <path d="M0,0 L69.4,120.9 A138,138 0 0,1 46.9,130.5 Z" fill="#b91c1c"/>
  <path d="M0,0 L46.9,130.5 A138,138 0 0,1 23.5,136.9 Z" fill="#1c1c1c"/>
  <path d="M0,0 L23.5,136.9 A138,138 0 0,1 0,138 Z" fill="#b91c1c"/>
  <path d="M0,0 L0,138 A138,138 0 0,1 -23.5,136.9 Z" fill="#1c1c1c"/>
  <path d="M0,0 L-23.5,136.9 A138,138 0 0,1 -46.9,130.5 Z" fill="#b91c1c"/>
  <path d="M0,0 L-46.9,130.5 A138,138 0 0,1 -69.4,120.9 Z" fill="#1c1c1c"/>
  <path d="M0,0 L-69.4,120.9 A138,138 0 0,1 -89.4,107.5 Z" fill="#b91c1c"/>
  <path d="M0,0 L-89.4,107.5 A138,138 0 0,1 -106.5,90.3 Z" fill="#1c1c1c"/>
  <path d="M0,0 L-106.5,90.3 A138,138 0 0,1 -120.1,70.5 Z" fill="#b91c1c"/>
  <path d="M0,0 L-120.1,70.5 A138,138 0 0,1 -130.0,48.5 Z" fill="#1c1c1c"/>
  <path d="M0,0 L-130.0,48.5 A138,138 0 0,1 -136.3,24.7 Z" fill="#b91c1c"/>
  <path d="M0,0 L-136.3,24.7 A138,138 0 0,1 -138.6,0 Z" fill="#1c1c1c"/>
  <path d="M0,0 L-138.6,0 A138,138 0 0,1 -137.2,-24.3 Z" fill="#b91c1c"/>
  <path d="M0,0 L-137.2,-24.3 A138,138 0 0,1 -130.6,-47.8 Z" fill="#1c1c1c"/>
  <path d="M0,0 L-130.6,-47.8 A138,138 0 0,1 -119.8,-69.7 Z" fill="#b91c1c"/>
  <path d="M0,0 L-119.8,-69.7 A138,138 0 0,1 -105.4,-89.3 Z" fill="#1c1c1c"/>
  <path d="M0,0 L-105.4,-89.3 A138,138 0 0,1 -87.9,-106.2 Z" fill="#b91c1c"/>
  <path d="M0,0 L-87.9,-106.2 A138,138 0 0,1 -68.0,-119.8 Z" fill="#1c1c1c"/>
  <path d="M0,0 L-68.0,-119.8 A138,138 0 0,1 -46.3,-129.9 Z" fill="#b91c1c"/>
  <path d="M0,0 L-46.3,-129.9 A138,138 0 0,1 -23.4,-136.0 Z" fill="#1c1c1c"/>
  <path d="M0,0 L-23.4,-136.0 A138,138 0 0,1 0,-138 Z" fill="#b91c1c"/>
  <circle r="58" fill="#0f0520"/>
  <circle r="56" fill="none" stroke="#f5c842" stroke-width="1.5"/>
  <circle r="20" fill="url(#vhub)"/>
  <circle r="18" fill="none" stroke="#f5c842" stroke-width="1.5"/>
  <circle r="5" fill="#f5c842"/>
  <polygon points="0,-152 -8,-132 8,-132" fill="#f5c842"/>
</g>
<g font-family="Arial Black, sans-serif" font-weight="900">
  <rect x="82" y="110" width="36" height="36" rx="4" fill="#b91c1c" stroke="#f5c842" stroke-width="1.5"/><text x="100" y="134" text-anchor="middle" font-size="17" fill="#fff">7</text>
  <rect x="126" y="70" width="36" height="36" rx="4" fill="#1c1c1c" stroke="#f5c842" stroke-width="1.5"/><text x="144" y="94" text-anchor="middle" font-size="17" fill="#fff">14</text>
  <rect x="518" y="110" width="36" height="36" rx="4" fill="#b91c1c" stroke="#f5c842" stroke-width="1.5"/><text x="536" y="134" text-anchor="middle" font-size="17" fill="#fff">21</text>
  <rect x="474" y="70" width="36" height="36" rx="4" fill="#15803d" stroke="#f5c842" stroke-width="1.5"/><text x="492" y="94" text-anchor="middle" font-size="17" fill="#fff">0</text>
  <rect x="55" y="190" width="36" height="36" rx="4" fill="#1c1c1c" stroke="#a78bfa" stroke-width="1.5"/><text x="73" y="214" text-anchor="middle" font-size="17" fill="#a78bfa">36</text>
  <rect x="589" y="190" width="36" height="36" rx="4" fill="#b91c1c" stroke="#a78bfa" stroke-width="1.5"/><text x="607" y="214" text-anchor="middle" font-size="17" fill="#fff">3</text>
</g>
<g opacity="0.7"><rect x="100" y="240" width="8" height="8" fill="#f5c842"/><rect x="102" y="242" width="4" height="4" fill="#fde68a"/><rect x="570" y="235" width="8" height="8" fill="#f5c842"/><rect x="572" y="237" width="4" height="4" fill="#fde68a"/><rect x="115" y="255" width="6" height="6" fill="#f5c842" opacity="0.5"/><rect x="555" y="250" width="6" height="6" fill="#f5c842" opacity="0.5"/></g>
<rect x="0" y="330" width="680" height="90" fill="#0a0318" opacity="0.88"/>
<line x1="0" y1="330" x2="680" y2="330" stroke="#f5c842" stroke-width="1" opacity="0.4"/>
<rect x="0" y="330" width="6" height="6" fill="#7c3aed"/><rect x="674" y="330" width="6" height="6" fill="#7c3aed"/>
<polygon points="50,358 53,349 56,358 65,358 58,364 61,373 53,367 45,373 48,364 41,358" fill="#f5c842" opacity="0.85"/>
<polygon points="630,358 633,349 636,358 645,358 638,364 641,373 633,367 625,373 628,364 621,358" fill="#f5c842" opacity="0.85"/>
<text x="340" y="378" text-anchor="middle" font-family="Arial Black, Arial, sans-serif" font-size="48" font-weight="900" fill="#fff" letter-spacing="10">VEME</text>
<text x="340" y="408" text-anchor="middle" font-family="Arial, sans-serif" font-size="13" fill="#a78bfa" letter-spacing="3">GrowVegas</text>
</g>
</svg>
